<?xml version="1.0" encoding="UTF-8" standalone="no"?>
<!-- Created with Inkscape (http://www.inkscape.org/) -->

<svg
   xmlns:dc="http://purl.org/dc/elements/1.1/"
   xmlns:cc="http://creativecommons.org/ns#"
   xmlns:rdf="http://www.w3.org/1999/02/22-rdf-syntax-ns#"
   xmlns:svg="http://www.w3.org/2000/svg"
   xmlns="http://www.w3.org/2000/svg"
   xmlns:sodipodi="http://sodipodi.sourceforge.net/DTD/sodipodi-0.dtd"
   xmlns:inkscape="http://www.inkscape.org/namespaces/inkscape"
   width="210mm"
   height="297mm"
   viewBox="0 0 210 297"
   version="1.1"
   id="svg8"
   inkscape:version="0.92.4 (5da689c313, 2019-01-14)"
   sodipodi:docname="carkey_button_outlines.svg">
  <defs
     id="defs2" />
  <sodipodi:namedview
     id="base"
     pagecolor="#ffffff"
     bordercolor="#666666"
     borderopacity="1.0"
     inkscape:pageopacity="0.0"
     inkscape:pageshadow="2"
     inkscape:zoom="15.839192"
     inkscape:cx="205.21442"
     inkscape:cy="936.47435"
     inkscape:document-units="mm"
     inkscape:current-layer="layer1"
     showgrid="false"
     showguides="true"
     inkscape:guide-bbox="true"
     inkscape:window-width="3826"
     inkscape:window-height="2117"
     inkscape:window-x="3840"
     inkscape:window-y="0"
     inkscape:window-maximized="0" />
  <metadata
     id="metadata5">
    <rdf:RDF>
      <cc:Work
         rdf:about="">
        <dc:format>image/svg+xml</dc:format>
        <dc:type
           rdf:resource="http://purl.org/dc/dcmitype/StillImage" />
        <dc:title></dc:title>
      </cc:Work>
    </rdf:RDF>
  </metadata>
  <g
     inkscape:label="Layer 1"
     inkscape:groupmode="layer"
     id="layer1">
    <path
       style="fill:none;fill-rule:evenodd;stroke:#000000;stroke-width:0.03779528;stroke-linecap:butt;stroke-linejoin:miter;stroke-miterlimit:4;stroke-dasharray:none;stroke-opacity:1"
       d="m 169.10742,168.27927 -6.85351,0.17773 -6.38282,0.40235 -3.24804,0.24609 c -0.25119,0.0193 -0.74889,0.0968 -1.08985,0.18945 -0.2999,0.075 -0.63915,0.29987 -0.78515,0.39063 -0.17363,0.11837 -0.44665,0.26617 -0.70313,0.60156 -0.10654,0.1381 -0.25099,0.34637 -0.3457,0.66992 l -0.2793,1.20508 -2.29883,12.05469 -0.33593,2.65625 -0.0449,1.25 c 0,0 -0.0102,1.20133 0.0449,1.96289 0.11444,0.93518 0.32486,1.38874 0.64843,1.96484 0.37486,0.54848 0.6821,0.88546 1.02539,1.20508 0.55243,0.49718 1.27344,0.78125 1.27344,0.78125 0.45378,0.21309 0.935,0.3607 1.1836,0.42383 0.35909,0.0907 2.90039,0.3125 2.90039,0.3125 l 6.29492,0.55859 8.83984,0.26758 4.72656,0.0293 4.72657,-0.0293 8.83984,-0.26758 6.29492,-0.55859 c 0,0 2.5413,-0.22176 2.90039,-0.3125 0.24859,-0.0631 0.72982,-0.21074 1.1836,-0.42383 0,0 0.72101,-0.28407 1.27343,-0.78125 0.3433,-0.31962 0.65054,-0.6566 1.0254,-1.20508 0.32357,-0.5761 0.53399,-1.02966 0.64843,-1.96484 0.0552,-0.76156 0.0449,-1.96289 0.0449,-1.96289 l -0.0449,-1.25 -0.33593,-2.65625 -2.29883,-12.05469 -0.2793,-1.20508 c -0.0947,-0.32355 -0.23916,-0.53182 -0.3457,-0.66992 -0.25649,-0.33539 -0.5295,-0.48319 -0.70313,-0.60156 -0.146,-0.0908 -0.48525,-0.31564 -0.78515,-0.39063 -0.34096,-0.0927 -0.83866,-0.17018 -1.08985,-0.18945 l -3.24804,-0.24609 -6.38282,-0.40235 -10.65918,-0.18848 z"
       transform="scale(0.26458333)"
       id="path4976"
       inkscape:connector-curvature="0"
       sodipodi:nodetypes="cccccccccccccccccccccccccccccccccccccccccc" />
  </g>
</svg>
